<svg xmlns="http://www.w3.org/2000/svg" viewBox="0 0 205.47 306.62"><defs><style>.cls-1,.cls-3{fill:#fff;}.cls-1,.cls-2{stroke:#fff;}.cls-1,.cls-2,.cls-4,.cls-6{stroke-miterlimit:10;}.cls-2,.cls-4,.cls-6{fill:none;}.cls-2{stroke-width:7px;}.cls-4{stroke:#fff200;}.cls-5{fill:#1c75bc;}.cls-6{stroke:#1c75bc;}.cls-7{fill:#fff200;}.cls-8{fill:#da1c5c;}</style></defs><g id="Layer_2" data-name="Layer 2"><g id="All_Text" data-name="All Text"><ellipse class="cls-1" cx="176.87" cy="277.29" rx="23.28" ry="9.23"/><polyline class="cls-2" points="166.99 275.01 102.71 302.86 1.18 266.6"/><path class="cls-3" d="M143.55,95.55v75H150V95.55Zm17.71,17.56h-6.42V170.5h6.42Z"/><path class="cls-4" d="M143.55,95.55v75H150V95.55Zm17.71,17.56h-6.42V170.5h6.42Z"/><path class="cls-3" d="M168.22,53.52v117h6.4v-117Zm17.71,27.39h-6.42V170.5h6.42Z"/><path class="cls-4" d="M168.22,53.52v117h6.4v-117Zm17.71,27.39h-6.42V170.5h6.42Z"/><path class="cls-5" d="M194.33.5v170h6.4V.5Z"/><path class="cls-6" d="M194.33.5v170h6.4V.5Z"/><path class="cls-3" d="M192.33.5v170h6.4V.5Z"/><path class="cls-4" d="M192.33.5v170h6.4V.5Z"/><path class="cls-5" d="M101.17,226.55c-14.88,0-27.11-4-28.47-9.21a4,4,0,0,0-.13,1c0,5.62,12.81,10.17,28.6,10.17s28.61-4.55,28.61-10.17a4,4,0,0,0-.13-1C128.29,222.51,116.06,226.55,101.17,226.55Z"/><path class="cls-7" d="M124.53,152.42c.38-7.19-1.91-14.06-4.14-20.56a44.94,44.94,0,0,1-2.06,21.91c-1.08,3-2.5,5.7-3.39,8.79a56.22,56.22,0,0,0-1.63,10.73,25.81,25.81,0,0,1-3.52-9.49c-1.62,2.61-1.69,6.49-1.13,9.85s1.68,6.51,2.14,9.91a27.32,27.32,0,0,1,.06,6.64l-3.58,5.06c-.85-3,.21-6.72-.91-9.56-.72-1.81-2.13-2.8-3.22-4.19a8,8,0,0,1-.6-.88c1.12-3.33.08-7.09-1.29-10.4a11.28,11.28,0,0,1,.67-1.93c-.26.56-.51,1.13-.76,1.72-.24-.59-.5-1.16-.75-1.72a11.28,11.28,0,0,1,.67,1.93c-1.37,3.31-2.41,7.07-1.3,10.4a7.94,7.94,0,0,1-.59.88c-1.09,1.39-2.51,2.38-3.22,4.19-1.12,2.84-.06,6.54-.92,9.56l-3.57-5.06a26.83,26.83,0,0,1,.06-6.64c.46-3.4,1.56-6.55,2.13-9.91s.5-7.24-1.12-9.85A25.82,25.82,0,0,1,89,173.29a55.44,55.44,0,0,0-1.62-10.73c-.9-3.09-2.31-5.83-3.4-8.79A45.18,45.18,0,0,1,82,131.86c-2.23,6.5-4.51,13.37-4.13,20.56.32,6,2.45,11.41,4.24,16.85s3.31,11.52,2.3,17.35l-4.3-6.12c-.29,4.1-.52,8.57,1.09,12,.53,1.12,1.24,2.08,1.68,3.27.32.87.49,1.83.82,2.69a12.36,12.36,0,0,0,1.21,2.18c1.12,1.73,2.24,3.47,3.37,5.2a20.8,20.8,0,0,0,2.61,3.48,15.12,15.12,0,0,0,3.64,2.43c2.12,1.12,4.52,2.2,6.69,1.91,2.18.29,4.57-.79,6.69-1.91a14.93,14.93,0,0,0,3.64-2.43,20.31,20.31,0,0,0,2.62-3.48l3.37-5.2a11.72,11.72,0,0,0,1.2-2.18c.33-.86.51-1.82.83-2.69.44-1.19,1.15-2.15,1.67-3.27,1.62-3.45,1.39-7.92,1.09-12L118,186.62c-1-5.83.5-11.9,2.3-17.35S124.21,158.39,124.53,152.42ZM101.72,185.1a4.47,4.47,0,0,1-.55,3.56,4.47,4.47,0,0,1-.55-3.56,9.74,9.74,0,0,1,.55-1.49A8,8,0,0,1,101.72,185.1Zm-2.67,17.23a13.74,13.74,0,0,1,.32-3.33c.13,1.63.38,3.68,1.46,3.46a.74.74,0,0,0,.34-.18.83.83,0,0,0,.35.18c1.08.22,1.32-1.83,1.46-3.46a13.74,13.74,0,0,1,.32,3.33c-.08,1.86-.85,3.8-2.13,4.34C99.89,206.13,99.13,204.19,99.05,202.33Zm2.12-31.76a14.91,14.91,0,0,1,0,6.48A15.22,15.22,0,0,1,101.17,170.57Z"/><path class="cls-5" d="M125.15,152.42c.33-7.17-1.85-14-4.16-20.72a.62.62,0,0,0-1.2.33A44.28,44.28,0,0,1,118,153c-1.13,3.24-2.75,6.3-3.68,9.61a58.2,58.2,0,0,0-1.58,10.68l1.16-.32a26,26,0,0,1-3.46-9.33.63.63,0,0,0-1.14-.15c-2.56,4.34-1.44,9.78-.3,14.38a39.5,39.5,0,0,1,1.46,8.77c0,.8,0,1.59-.07,2.38a3.71,3.71,0,0,1-.84,2l-2.76,3.89,1.15.15c-.62-2.4-.16-4.88-.42-7.32a8.85,8.85,0,0,0-2.64-5.31c-.34-.36-.69-.71-1-1.1a1.46,1.46,0,0,1-.4-1.62,11.29,11.29,0,0,0,.15-3.43,18.5,18.5,0,0,0-.78-3.69c-.18-.58-.42-1.15-.6-1.72a2.71,2.71,0,0,1,.27-2.28c.31-.73-.75-1.37-1.08-.63-.26.57-.51,1.14-.76,1.71h1.08q-.36-.85-.75-1.71c-.34-.74-1.4-.1-1.08.63a2.82,2.82,0,0,1,.35,2.07c-.17.57-.43,1.13-.61,1.71a19.4,19.4,0,0,0-.83,3.68,12.09,12.09,0,0,0,.08,3.45c.13.71.29,1-.18,1.61a16.36,16.36,0,0,1-1.18,1.32,8.82,8.82,0,0,0-2.61,5.12c-.3,2.5.19,5-.44,7.51l1.14-.15L93,191.25a4.32,4.32,0,0,1-1-2,17.21,17.21,0,0,1-.08-2.38,38.27,38.27,0,0,1,1.46-9c1.14-4.6,2.26-10-.3-14.38-.25-.43-1-.4-1.14.15A26,26,0,0,1,88.49,173l1.17.32a59.56,59.56,0,0,0-1.52-10.46c-.93-3.39-2.59-6.52-3.74-9.83a44.15,44.15,0,0,1-1.84-21,.63.63,0,0,0-1.21-.33,78.51,78.51,0,0,0-3.75,13.62,35,35,0,0,0,.51,13.3c2.14,9.22,7.22,18.08,5.65,27.83l1.14-.15-4.3-6.12a.63.63,0,0,0-1.16.32,37.4,37.4,0,0,0,.09,8.72,13.68,13.68,0,0,0,1.08,3.61,28.53,28.53,0,0,1,2,4.28c.84,2.93,2.69,5.33,4.33,7.86s3,4.82,5.55,6.38c2.26,1.4,5,2.87,7.68,3a15.08,15.08,0,0,0,8-2,15.4,15.4,0,0,0,6-5.39c.87-1.3,1.71-2.63,2.56-3.94a25.76,25.76,0,0,0,2.5-4.19,37.82,37.82,0,0,1,1.63-4.34,16,16,0,0,0,1.72-4,32.43,32.43,0,0,0,.33-9.93.64.64,0,0,0-1.17-.32l-4.29,6.12,1.14.15c-1.91-11.86,5.85-22.42,6.56-34,0-.81-1.2-.8-1.25,0-.72,11.78-8.46,22.27-6.51,34.36.09.59.86.54,1.14.15l4.29-6.12-1.16-.31a36.78,36.78,0,0,1,0,8.39,12.54,12.54,0,0,1-1.06,3.5,35.12,35.12,0,0,0-1.64,3.24,24,24,0,0,1-1.32,3.67c-.75,1.32-1.64,2.57-2.47,3.84-1.51,2.34-2.89,5.06-5.21,6.7s-5.2,3.23-7.92,3.26a12.2,12.2,0,0,1-3.81-.38,22.74,22.74,0,0,1-4.08-1.86A12.19,12.19,0,0,1,91,208.59a24.79,24.79,0,0,1-2.62-3.65c-1.51-2.32-3.55-4.72-4.38-7.38a17.85,17.85,0,0,0-1.44-3.74,15.08,15.08,0,0,1-1.68-4.12,32.59,32.59,0,0,1-.19-9.2l-1.17.31,4.3,6.12c.27.39,1.05.43,1.14-.15,1.52-9.4-2.82-17.93-5.21-26.76a34.53,34.53,0,0,1-1-14.37A78.54,78.54,0,0,1,82.56,132l-1.21-.33a46,46,0,0,0,1.44,20.4c1,3.33,2.67,6.44,3.75,9.75a51.47,51.47,0,0,1,1.87,11.44.63.63,0,0,0,1.16.31A26.8,26.8,0,0,0,93.16,164l-1.14.15c2.84,4.82.73,10.88-.43,15.87a31.08,31.08,0,0,0-.88,8.32,9.2,9.2,0,0,0,.16,2,5.48,5.48,0,0,0,.9,1.4l2.75,3.89a.64.64,0,0,0,1.15-.15c.59-2.32.25-4.69.41-7a7,7,0,0,1,1.2-3.73c.71-1,1.67-1.78,2.41-2.75a3.4,3.4,0,0,0,.71-1.1c.09-.44-.2-1-.28-1.38a11.32,11.32,0,0,1,.12-4.49,23.42,23.42,0,0,1,1.2-3.9c.43-1.1,0-2-.48-3l-1.08.63q.39.85.75,1.71a.63.63,0,0,0,1.08,0c.25-.57.5-1.14.76-1.71l-1.08-.63c-.4.91-.92,1.85-.56,2.82a29.28,29.28,0,0,1,1.23,3.89,11.71,11.71,0,0,1,.21,4.49c-.08.48-.42,1.12-.32,1.6a3.46,3.46,0,0,0,.71,1.1c.68.89,1.54,1.63,2.22,2.52a6.74,6.74,0,0,1,1.37,3.76c.2,2.43-.18,4.86.43,7.25a.63.63,0,0,0,1.14.15l2.62-3.69a7.16,7.16,0,0,0,1-1.51,7.38,7.38,0,0,0,.16-1.83,30.44,30.44,0,0,0-.87-8.55c-1.16-5-3.26-11.05-.42-15.87l-1.15-.15a27,27,0,0,0,3.6,9.63.63.63,0,0,0,1.16-.31,50.9,50.9,0,0,1,1.87-11.44c1.08-3.31,2.71-6.42,3.75-9.75A45.87,45.87,0,0,0,121,131.7l-1.2.33c2.26,6.59,4.43,13.33,4.11,20.39C123.87,153.22,125.12,153.22,125.15,152.42Z"/><path class="cls-5" d="M101.12,185.26a4.44,4.44,0,0,1,.08,1.62,4,4,0,0,1-.21.84.77.77,0,0,1-.11.25l-.09.16s-.13.18-.06.09h.89l-.08-.12-.12-.22s0-.09,0,0,0-.09-.05-.13a2.58,2.58,0,0,1-.08-.26,4.42,4.42,0,0,1-.16-1.14,5.52,5.52,0,0,1,.6-2.39h-1.08a7.85,7.85,0,0,1,.49,1.33.63.63,0,0,0,1.21-.33,9.75,9.75,0,0,0-.62-1.63.63.63,0,0,0-1.08,0,7,7,0,0,0-.77,3.1,4.47,4.47,0,0,0,.87,2.7.64.64,0,0,0,.89,0,5,5,0,0,0,.71-4.17A.63.63,0,0,0,101.12,185.26Z"/><path class="cls-5" d="M99.67,202.33a13.39,13.39,0,0,1,.3-3.16L98.74,199a9.1,9.1,0,0,0,.61,3.11,1.42,1.42,0,0,0,2.27.61h-.89a1.42,1.42,0,0,0,2.27-.61,8.86,8.86,0,0,0,.6-3.11l-1.22.17a10.49,10.49,0,0,1,.14,4.32,3.53,3.53,0,0,1-1.66,2.64h.63c-1.35-.61-1.75-2.48-1.82-3.8,0-.8-1.29-.81-1.25,0A7.35,7.35,0,0,0,99.49,206a3.47,3.47,0,0,0,1.2,1.15.88.88,0,0,0,1,0,3.48,3.48,0,0,0,.66-.48,5.91,5.91,0,0,0,1.51-3.31,12.86,12.86,0,0,0-.24-4.5c-.15-.74-1.17-.5-1.23.16a11.66,11.66,0,0,1-.31,2.12,2,2,0,0,1-.28.66l-.1.08c0-.06,0,0,0,0a.66.66,0,0,0-.89,0s-.12,0-.06,0,0,0,0,0l-.1-.1a2.31,2.31,0,0,1-.27-.65A11.67,11.67,0,0,1,100,199a.62.62,0,0,0-.54-.61.61.61,0,0,0-.68.45,14.62,14.62,0,0,0-.35,3.49C98.45,203.13,99.7,203.13,99.67,202.33Z"/><path class="cls-5" d="M100.57,170.74a14.33,14.33,0,0,1,0,6.15h1.21a14.33,14.33,0,0,1,0-6.15c.17-.78-1-1.12-1.21-.33a16,16,0,0,0,0,6.81.63.63,0,0,0,1.21,0,16,16,0,0,0,0-6.81C101.6,169.62,100.4,170,100.57,170.74Z"/><path class="cls-7" d="M101.17,211.14c1.28-.54,2-2.48,2.13-4.34a13.74,13.74,0,0,0-.32-3.33c-.14,1.63-.38,3.68-1.46,3.46a.73.73,0,0,1-.35-.18.66.66,0,0,1-.34.18c-1.08.22-1.33-1.83-1.46-3.46a13.74,13.74,0,0,0-.32,3.33C99.13,208.66,99.89,210.6,101.17,211.14Z"/><path class="cls-7" d="M117.9,204.49l-.41.65-3.37,5.19a20.31,20.31,0,0,1-2.62,3.48,14.93,14.93,0,0,1-3.64,2.43c-2.12,1.12-4.51,2.21-6.69,1.91-2.17.3-4.57-.79-6.69-1.91a15.12,15.12,0,0,1-3.64-2.43,20.8,20.8,0,0,1-2.61-3.48q-1.7-2.6-3.37-5.19l-.41-.65c-7.19,1.85-11.88,4.86-11.88,8.25,0,5.61,12.81,10.17,28.6,10.17s28.61-4.56,28.61-10.17C129.78,209.35,125.09,206.34,117.9,204.49Z"/><path class="cls-3" d="M96,187a5.36,5.36,0,0,1-1.22-5.48,15.65,15.65,0,0,1,3-5.06l6.63-8.48c3-3.84,6.13-8,6.48-12.85.42-5.75-3.11-11.91-.45-17,1-2,2.86-3.44,3.93-5.4,1.65-3,1.25-6.77,0-10s-3.35-6-5.07-8.94a45.49,45.49,0,0,1-5.92-26.41c-2.2,3.27,0,7.64,2.39,10.77a86.83,86.83,0,0,0,9.38,10.44,48.16,48.16,0,0,1,5,5c5.65,7.25,5.09,17.88,1.05,26.14a2.81,2.81,0,0,0-1.57-2.19,12.72,12.72,0,0,0-.56,10.73,2.83,2.83,0,0,0,1.13,1.51,2.87,2.87,0,0,0,2.6-.33,13.39,13.39,0,0,0,6.79-8.88c.8,4.15-.86,8.41-3.16,12s-5.24,6.66-7.45,10.26c-2.45,4-4.1,8.72-7.86,11.51-1.79,1.32-4.07,2.24-5,4.24-.89,1.81-.42,4,.44,5.83s2.09,3.48,2.77,5.38a10.51,10.51,0,0,1-4.54,12.28,4.48,4.48,0,0,1-3.28.69,5.82,5.82,0,0,1-1.7-.87l-6.44-4.29c-2.59-1.72-5.27-3.53-6.87-6.2a15.42,15.42,0,0,1-1.77-8.85,50.86,50.86,0,0,1,2.53-12,50.71,50.71,0,0,1,4.42-11c2.16-3.68,5.16-6.87,6.89-10.77s1.85-9-1.3-11.91a19.34,19.34,0,0,1,5.69,13.82c-.11,10.74-9.11,20.16-8.2,30.86"/><path class="cls-7" d="M96.47,186.5c-3-2.92-.19-7.09,1.8-9.65,2.46-3.17,5-6.3,7.41-9.47a31.13,31.13,0,0,0,5.09-8.52c1.12-3.19.87-6.38.28-9.64s-1.69-7.18-.2-10.48c1.36-3,4.28-4.82,5-8.19,1.6-7.19-4-13.11-7.06-19A45.11,45.11,0,0,1,104,87.36c0-.65-.86-.8-1.17-.31-2,3.15-.59,6.86,1.24,9.74a62.22,62.22,0,0,0,8.21,9.84c2.94,3,6.48,5.63,8.64,9.31a21.18,21.18,0,0,1,2.71,10.93,29.61,29.61,0,0,1-3,12.56l1.14.15a3.52,3.52,0,0,0-1.85-2.56.64.64,0,0,0-.86.22,13.63,13.63,0,0,0-1.48,7.88c.23,1.88.84,5.28,3.23,5.49,2.17.19,4.56-1.93,5.93-3.4a14.13,14.13,0,0,0,3.42-6.45H129c1,5.55-2.25,10.58-5.47,14.79-1.65,2.16-3.38,4.26-4.84,6.56-1.24,2-2.24,4.07-3.39,6.09a17.76,17.76,0,0,1-4.49,5.58c-1.58,1.18-3.49,2-4.72,3.59-3.33,4.36,1.43,8.84,2.71,12.89a9.92,9.92,0,0,1-4.22,11.17,3.64,3.64,0,0,1-4.17.11c-1.27-.79-2.5-1.66-3.75-2.49a73.5,73.5,0,0,1-6.7-4.66,12.18,12.18,0,0,1-4.17-6.22,20.9,20.9,0,0,1-.22-8.3,57.91,57.91,0,0,1,2-8.3,73.78,73.78,0,0,1,2.79-8.06A41.55,41.55,0,0,1,94.76,156a38.72,38.72,0,0,0,4.42-7.18c1.68-4,1.79-9.15-1.53-12.35a.63.63,0,0,0-.89.89,18.87,18.87,0,0,1,5.42,11.36,25.58,25.58,0,0,1-2,11.41c-2.59,7-6.74,13.76-6.16,21.46.06.8,1.31.8,1.25,0-.62-8.23,4.28-15.4,6.75-22.93a23.8,23.8,0,0,0,1.18-11.31,20.23,20.23,0,0,0-5.6-10.88l-.89.89c3.76,3.61,2.36,9.43,0,13.41-1.37,2.34-3.07,4.45-4.58,6.7a36.86,36.86,0,0,0-3.73,7.29,63.07,63.07,0,0,0-4.38,16.88c-.45,5.11.67,9.94,4.64,13.42a59.41,59.41,0,0,0,6.46,4.58L98.82,202a6.77,6.77,0,0,0,3,1.43c4.23.38,7.61-4.58,8.34-8.19a10.69,10.69,0,0,0-.49-6.05c-1-2.49-2.88-4.61-3.4-7.29-.61-3.19,1.55-4.74,3.92-6.26a16.4,16.4,0,0,0,4.72-4.56c1.52-2.2,2.64-4.66,4-7a67.92,67.92,0,0,1,5.39-7.57c3.56-4.63,6.92-10,5.86-16.12-.1-.61-1.07-.57-1.2,0a12.54,12.54,0,0,1-6.8,8.64c-.87.38-1.57.5-2.24-.39a5,5,0,0,1-.63-1.51,12.15,12.15,0,0,1,.85-9.29l-.85.23a2.41,2.41,0,0,1,1.28,1.81.63.63,0,0,0,1.14.15c3.08-6.39,4.31-14,2-20.9a22.15,22.15,0,0,0-6.05-9.06,117.33,117.33,0,0,1-9.22-9.57c-2.66-3.21-7.29-8.46-4.55-12.85l-1.16-.32a46.41,46.41,0,0,0,3.42,21.5,72.88,72.88,0,0,0,5.28,9.61c2,3.23,3.74,6.83,3.36,10.71a9.73,9.73,0,0,1-2.46,5.28,16.4,16.4,0,0,0-2.68,3.83c-1.3,2.93-.82,6.17-.25,9.22.7,3.73,1.41,7.32.12,11s-3.7,6.6-6,9.54c-2.68,3.42-5.7,6.75-8,10.42-1.71,2.69-2.5,6.45.06,8.9.58.56,1.46-.33.88-.89Z"/><path class="cls-5" d="M171.42,187.31c-14.89,0-27.11-5.32-28.47-12.12a5.86,5.86,0,0,0-.13,1.26c0,7.39,12.8,13.38,28.6,13.38s28.6-6,28.6-13.38a6.57,6.57,0,0,0-.13-1.26C198.53,182,186.31,187.31,171.42,187.31Z"/><path class="cls-5" d="M176.87,289.53c-14.89,0-27.11-5.32-28.47-12.12a6.57,6.57,0,0,0-.13,1.26c0,7.39,12.81,13.38,28.6,13.38s28.6-6,28.6-13.38a5.86,5.86,0,0,0-.13-1.26C204,284.21,191.76,289.53,176.87,289.53Z"/><path class="cls-8" d="M176.87,285.91c-14.89,0-27.11-5.33-28.47-12.13a6.74,6.74,0,0,0-.13,1.26c0,7.4,12.81,13.39,28.6,13.39s28.6-6,28.6-13.39a6,6,0,0,0-.13-1.26C204,280.58,191.76,285.91,176.87,285.91Z"/><path class="cls-5" d="M154.51,232.32l3.34,5a2.68,2.68,0,0,0,3,1.3,3.57,3.57,0,0,0,2.13-1.29c.25-.45-.22-1.55-.67-2.11-4.74-5.93-9.55-11.8-14.17-17.86.84.93,1.69,1.85,2.53,2.77,4.35,4.79,8.61,9.67,13.09,14.34a3.21,3.21,0,0,1-1.18,5.5,18.55,18.55,0,0,1-3,.87,2.61,2.61,0,0,0-2.14,2.24c-.7,2.71-1.45,5.41-2.34,8.06s-.49,4.58,1.81,6.37c.74.58,1.53,1.1,2.22,1.74a3.35,3.35,0,0,1,.21,5c-1.9,2-4.44,2.82-7,3.43a1,1,0,0,1-.91-.3c-1.59-2.85-3.89-5.49-3.29-9.06a12.24,12.24,0,0,1,1.52-4c.78-1.37,2.08-2.45,2.79-3.85a62.53,62.53,0,0,0,2.5-6.3c.49-1.31.63-2.84,1.41-3.92a3,3,0,0,0,.16-3.83c-.79-1.29-1.46-2.66-2.18-4ZM151,257.06c-.44.83-.9,1.31-.8,1.57.29.73-.51,2.19,1,2.06.44,0,1.09-1,1.1-1.6S151.64,258,151,257.06Z"/><path class="cls-5" d="M178.63,238.87c3.42,2.27,7.27,2,10.8,3a23.07,23.07,0,0,1,6.12,2.56c4.09,2.59,4.65,9,2.65,11.83-.93-3.21-3.47-4.64-6.18-5.87s-5.75-2.44-8.51-3.86C180.59,245,178.54,242.78,178.63,238.87Z"/><path class="cls-5" d="M191.93,270.91c1.25-3.75,0-6.68-1.94-9.49-1.05-1.55-2.07-3.13-3-4.74a8.7,8.7,0,0,1-1.09-6.66c3.3,1.94,6.77,3.27,9.29,6.11C198.72,260.17,197.36,268.36,191.93,270.91Z"/><path class="cls-5" d="M188.39,238.72c-5.2.08-9.71-1.21-13-5.66-2.31-3.13-4.52-6.43-8.08-8.43a11.73,11.73,0,0,1,5.7,3.88,2.71,2.71,0,0,0,2.59,1,20.19,20.19,0,0,1,11,1.55c2.47,1.18,3,2.43,2.34,5.08C188.77,236.93,188.61,237.73,188.39,238.72Z"/><path class="cls-5" d="M184,276.16a4.37,4.37,0,0,1-5.25-1.91c-.91-1.42-1.55-3-2.34-4.53a6.08,6.08,0,0,0-4.7-3.59,3,3,0,1,0,0,5.82c1.5-.53,1.88-1.63,1.22-3.61h.49c0,1,.37,2.2-.09,2.84a5.1,5.1,0,0,1-2.84,1.6,3.05,3.05,0,0,1-2.25-.78c-2.46-2.13-4.5-4.86-8.48-4.68,2.54-3.08,9.23-6.06,14-4.39,3.27,1.14,4.64,3.56,5.19,6.71.12.69.22,1.39.36,2.08C180,274.83,180.62,275.48,184,276.16Z"/><path class="cls-5" d="M163.24,225.62a4.74,4.74,0,0,1,4,3.6c.72,2.27,1.39,4.56,2.08,6.83C166.07,236.82,161.81,229.5,163.24,225.62Z"/><path class="cls-5" d="M170.93,258.88c1.92-.38,3.87-.65,5.74-1.18a15.59,15.59,0,0,0,4.48-1.88c2-1.37,2.32-3.57,2-6a5,5,0,0,1-.59,6.39,8.58,8.58,0,0,1-3.71,2.2,75,75,0,0,1-7.81.93Z"/><path class="cls-5" d="M169.58,242.79A1.37,1.37,0,0,1,169,245c-1.22.63-2.74,1.45-3.88.24a2.06,2.06,0,0,1,.35-3c.52.56,1,1.46,1.45,1.46A8.82,8.82,0,0,0,169.58,242.79Z"/><path class="cls-5" d="M190.83,238.72l1.61-3.34,3.2,5.51Z"/><path class="cls-5" d="M190.62,234.77c0-2-.07-3.93-1.86-4.92l1.29-1.26,1.9,3.28C189.9,231.92,191.13,233.78,190.62,234.77Z"/></g></g></svg>