<svg xmlns="http://www.w3.org/2000/svg" viewBox="0 0 117.58 187.04"><defs><style>.a{fill:#fff200;stroke:#ffde17;stroke-miterlimit:10;}.b{fill:#a7a9ac;}</style></defs><path d="M65.11.05H46.29C34.43.05,22.56.1,10.69,0,8.74,0,8.43,1.14,8.21,2.44,8,4,9.4,3.61,10.12,3.76a13.41,13.41,0,0,1,10.74,9.63c.63,1.91,1.4,3.79,1.86,5.74q5,21.29,9.87,42.58c.37,1.64.9,3.5.48,5C29.61,79.11,26,91.45,22.32,103.8c-1.48,5-5,8-9.92,9.33a61.13,61.13,0,0,1-6.48,1c-2,.29-2.38.84-2.11,3.12.47,0,.95.11,1.43.11H61.76c2,0,2.44-.57,2.4-3-2.16-.18-4.34-.37-6.52-.53-5.94-.44-10-4.64-8.25-10.82,3.14-11.15,6.24-22.32,9.39-33.47a6.21,6.21,0,0,1,1-1.92Q80.07,39.79,100.38,12c3-4.15,6.57-7.78,12.12-8.44,1.32-.15,1.07-1.25,1.11-2.15,0-1.07-.57-1.34-1.51-1.34-10.83,0-21.66,0-32.48,0-1.7,0-1.83,1.21-2.06,2.29-.28,1.34.89,1.13,1.68,1.32a23.13,23.13,0,0,1,2.81.82A7.47,7.47,0,0,1,87,11.69C87,16.2,85,20,82.61,23.53c-5.56,8.11-11.29,16.1-17,24.12-2.5,3.52-5.06,7-7.69,10.61a4,4,0,0,1-.45-.81c-2.87-13.65-5.77-27.3-8.56-41-.87-4.3.74-7.78,4.23-10.38a14,14,0,0,1,8.08-2.52C64.35,3.44,64.81,3.06,65.11.05Zm52.47,140.74H0v15.39H117.58ZM90,183.41V168H0v15.45Z"/><path class="a" d="M65.11,3.67c-.3,3-.76,3.4-3.87,3.53a14.1,14.1,0,0,0-8.08,2.52c-3.49,2.61-5.1,6.08-4.23,10.38,2.79,13.67,5.69,27.32,8.56,41a4.23,4.23,0,0,0,.45.8c2.63-3.63,5.19-7.09,7.69-10.61,5.69-8,11.42-16,17-24.12C85,23.62,87,19.82,87,15.31a7.47,7.47,0,0,0-4.92-7.23,23.13,23.13,0,0,0-2.81-.82c-.79-.18-2,0-1.68-1.32.23-1.07.36-2.29,2.06-2.29,10.82.05,21.65,0,32.48,0,.94,0,1.55.27,1.51,1.34,0,.9.21,2-1.11,2.15-5.55.66-9.08,4.29-12.12,8.44Q80,43.38,59.79,71.27a6.32,6.32,0,0,0-1,1.92c-3.15,11.15-6.25,22.32-9.39,33.48-1.74,6.17,2.31,10.38,8.25,10.81,2.18.16,4.36.35,6.52.53,0,2.44-.41,3-2.4,3q-28.26,0-56.52,0c-.48,0-1-.07-1.43-.1-.27-2.29.13-2.84,2.11-3.13a61.13,61.13,0,0,0,6.48-1c4.94-1.3,8.44-4.3,9.92-9.32C26,95.08,29.61,82.73,33.07,70.34c.42-1.51-.11-3.37-.48-5Q27.71,44,22.72,22.76c-.46-2-1.23-3.84-1.86-5.75A13.41,13.41,0,0,0,10.12,7.38C9.4,7.24,8,7.58,8.21,6.07c.22-1.31.53-2.46,2.48-2.45,11.87.1,23.74,0,35.6,0H65.11Z"/><path class="b" d="M117.58,144.41v15.4H0v-15.4Z"/><path class="b" d="M90,187H0V171.58H90Z"/></svg>