<svg xmlns="http://www.w3.org/2000/svg" viewBox="0 0 282.07 204.25"><defs><style>.cls-1{fill:#fff;}.cls-1,.cls-2{stroke:#fff;}.cls-1,.cls-2,.cls-4,.cls-6{stroke-miterlimit:10;}.cls-2,.cls-4,.cls-6{fill:none;}.cls-2{stroke-width:7px;}.cls-3{fill:#fff200;}.cls-4{stroke:#1c75bc;stroke-width:2px;}.cls-5{fill:#1c75bc;}.cls-6{stroke:#fff200;stroke-width:5px;}</style></defs><g id="Layer_2" data-name="Layer 2"><g id="All_Text" data-name="All Text"><ellipse class="cls-1" cx="194.68" cy="174.35" rx="57.37" ry="21.37"/><polyline class="cls-2" points="166.99 172.64 102.71 200.49 1.18 164.22"/><path class="cls-3" d="M248,54.58c-.2,2.05-.51,2.31-2.63,2.41a9.58,9.58,0,0,0-5.51,1.71A6.72,6.72,0,0,0,237,65.77c1.9,9.32,3.88,18.62,5.84,27.92a2.23,2.23,0,0,0,.3.55c1.79-2.47,3.54-4.83,5.24-7.23,3.88-5.46,7.78-10.91,11.57-16.43,1.65-2.41,3-5,3-8.07a5.1,5.1,0,0,0-3.36-4.93,15,15,0,0,0-1.91-.55c-.54-.13-1.33,0-1.14-.9.15-.74.24-1.57,1.4-1.56,7.38,0,14.75,0,22.13,0,.64,0,1.06.18,1,.91s.14,1.36-.75,1.47c-3.79.45-6.19,2.92-8.26,5.75q-13.87,18.93-27.66,37.93a4.4,4.4,0,0,0-.69,1.3c-2.14,7.6-4.25,15.21-6.4,22.81-1.18,4.21,1.58,7.07,5.62,7.37,1.49.11,3,.24,4.45.36,0,1.67-.28,2.05-1.63,2.05H207.23c-.32,0-.65,0-1-.07-.18-1.55.09-1.93,1.43-2.13a38,38,0,0,0,4.42-.71,8.89,8.89,0,0,0,6.76-6.35c2.47-8.41,5-16.82,7.33-25.27a7.63,7.63,0,0,0-.33-3.41q-3.31-14.5-6.73-29c-.31-1.33-.83-2.61-1.26-3.91a9.14,9.14,0,0,0-7.32-6.56c-.49-.1-1.48.14-1.3-.9s.36-1.67,1.69-1.66c8.08.06,16.17,0,24.26,0H248Z"/><path class="cls-4" d="M248,54.58c-.2,2.05-.51,2.31-2.63,2.41a9.58,9.58,0,0,0-5.51,1.71A6.72,6.72,0,0,0,237,65.77c1.9,9.32,3.88,18.62,5.84,27.92a2.23,2.23,0,0,0,.3.55c1.79-2.47,3.54-4.83,5.24-7.23,3.88-5.46,7.78-10.91,11.57-16.43,1.65-2.41,3-5,3-8.07a5.1,5.1,0,0,0-3.36-4.93,15,15,0,0,0-1.91-.55c-.54-.13-1.33,0-1.14-.9.15-.74.24-1.57,1.4-1.56,7.38,0,14.75,0,22.13,0,.64,0,1.06.18,1,.91s.14,1.36-.75,1.47c-3.79.45-6.19,2.92-8.26,5.75q-13.87,18.93-27.66,37.93a4.4,4.4,0,0,0-.69,1.3c-2.14,7.6-4.25,15.21-6.4,22.81-1.18,4.21,1.58,7.07,5.62,7.37,1.49.11,3,.24,4.45.36,0,1.67-.28,2.05-1.63,2.05H207.23c-.32,0-.65,0-1-.07-.18-1.55.09-1.93,1.43-2.13a38,38,0,0,0,4.42-.71,8.89,8.89,0,0,0,6.76-6.35c2.47-8.41,5-16.82,7.33-25.27a7.63,7.63,0,0,0-.33-3.41q-3.31-14.5-6.73-29c-.31-1.33-.83-2.61-1.26-3.91a9.14,9.14,0,0,0-7.32-6.56c-.49-.1-1.48.14-1.3-.9s.36-1.67,1.69-1.66c8.08.06,16.17,0,24.26,0H248Z"/><path class="cls-5" d="M277.41,147.74v10.49H197.3V147.74Z"/><path class="cls-6" d="M277.41,147.74v10.49H197.3V147.74Z"/><path class="cls-5" d="M162.25,143.58l1.19,36,.17,5.18a1.27,1.27,0,0,0,1.89,1.08c5.09-2.36,8-7.5,8.78-12.89.95-6.25-.46-12.25-3.12-17.91-1.95-4.16-4.38-8.07-6.58-12.1-.78-1.41-2.94-.15-2.16,1.26,4,7.32,9.16,14.62,9.63,23.22.35,6.35-1.62,13.39-7.82,16.26l1.88,1.08-1.19-36-.17-5.18C164.69,142,162.19,142,162.25,143.58Z"/><path class="cls-5" d="M168.16,76.09,168,79.56a1.26,1.26,0,0,0,2.13.88C182,68.91,194.56,56.35,198.51,39.71a1.26,1.26,0,0,0-2.29-1A123.38,123.38,0,0,1,178.39,58.3c-5.18,4.59-11.74,10.42-10.18,18.12.31,1.58,2.72.91,2.41-.67-1.48-7.32,6.56-12.92,11.21-17.19A126.8,126.8,0,0,0,198.38,40l-2.28-1c-3.85,16.21-16.19,28.39-27.73,39.63l2.14.88.15-3.47C170.73,74.48,168.23,74.48,168.16,76.09Z"/><path class="cls-5" d="M165.77,90.3c.16-1.56.38-3.12.5-4.69.24-3.1,1.16-6.25,1.54-9.39a51,51,0,0,0,.11-12.28,62,62,0,0,0-2.72-11.4c-1.37-4.25-2.91-8.46-3.94-12.81a1.25,1.25,0,0,0-2.45.33l1.13,34.2.17,4.9L162,78.08a36.59,36.59,0,0,0-8-4.29q-4.56-2-9-4.25a188,188,0,0,1-17.1-9.81A1.26,1.26,0,0,0,126,60.8c-.42,3.91-.74,8.15,1.21,11.73,1.77,3.25,5.14,5,8.47,6.27,4.31,1.64,8.75,3,13.12,4.5,4.22,1.43,8.52,2.81,12.18,5.43l-.62-1.08L160.7,97a1.25,1.25,0,0,0,2.45.33c.66-2.45,1.32-4.89,1.95-7.34L163,90.5c.21.22.42.45.62.69,1.07,1.21,2.83-.57,1.77-1.77l-.62-.69a1.26,1.26,0,0,0-2.09.56c-.63,2.45-1.29,4.89-1.95,7.33l2.46.34-.2-6c0-1,0-2-.1-3-.09-1.57-1.93-2.3-3.18-3-4.37-2.39-9.3-3.76-14-5.36-2.54-.86-5.07-1.71-7.6-2.58a25.28,25.28,0,0,1-5.64-2.53c-4.78-3.1-4.5-8.64-4-13.69l-1.88,1.08a186.73,186.73,0,0,0,17.1,9.82q4.35,2.19,8.81,4.15a38.28,38.28,0,0,1,8.17,4.39,1.26,1.26,0,0,0,1.88-1.08L161.47,45l-.16-4.89-2.46.33c1.14,4.81,2.9,9.43,4.36,14.15a49.6,49.6,0,0,1,2.53,14.93,56.1,56.1,0,0,1-.58,7.87c-.18,1.29-.4,2.58-.64,3.86a28,28,0,0,0-.75,3.71c-.08,1.6-.31,3.63-.5,5.39C163.1,91.9,165.6,91.89,165.77,90.3Z"/><path class="cls-5" d="M172.2,113.43A77.93,77.93,0,0,0,192.37,100a75,75,0,0,0,8.18-8.81c2.54-3.23,4.84-7,4.56-11.25A1.27,1.27,0,0,0,203,79,380.55,380.55,0,0,1,161.82,111l1.88,1.08L163.2,97a1.26,1.26,0,0,0-2.46-.34c-2.69,10-5.44,20.43-4.17,30.9l2.13-.88c-11.21-10.61-24-22.07-40.47-22a1.25,1.25,0,0,0,0,2.5c3.92,0,5.8,4.18,7,7.27a23,23,0,0,0,5.62,8.91c5.57,5.11,13.06,6.83,20.36,7.69,1.17.14,2.34.25,3.51.37.83.07,1.68.33,2.34-.29a19.72,19.72,0,0,0,1.68-2.07l-2.09-.55a47.68,47.68,0,0,0,5.73,15.71,1.26,1.26,0,0,0,2.33-.63l-.87-26.16-.13-3.78-1.58,1.2c3.36,1.08,6.94,0,10-1.41,1.47-.66.2-2.81-1.26-2.16-2.48,1.11-5.42,2-8.11,1.16a1.27,1.27,0,0,0-1.58,1.21l.87,26.16.13,3.78,2.33-.63a45.79,45.79,0,0,1-5.48-15.12,1.25,1.25,0,0,0-2.09-.55l-1.72,2.12.88-.36c-8.28-.78-17.47-1.69-23.79-7.72a16.78,16.78,0,0,1-3.36-4.44c-1-1.88-1.59-3.91-2.49-5.81-1.56-3.32-4.38-6.4-8.3-6.4v2.5c15.71-.1,28,11.1,38.7,21.24.71.66,2.27.25,2.14-.89-1.24-10.27,1.44-20.39,4.08-30.23L160.7,97l.5,15.09a1.26,1.26,0,0,0,1.88,1.08A384.35,384.35,0,0,0,204.74,80.8l-2.13-.88c.27,4.18-2.35,7.72-4.88,10.78a75.51,75.51,0,0,1-26.79,20.57C169.48,111.94,170.75,114.1,172.2,113.43Z"/><path class="cls-5" d="M166.48,147.79l1.11,1.25a1.27,1.27,0,0,0,1.52.19c13.62-7.91,27.36-16,38.82-26.9a1.26,1.26,0,0,0-.88-2.13,53.5,53.5,0,0,0-34.25,17.17,52.1,52.1,0,0,0-6.51,8.9,1.25,1.25,0,0,0,2.16,1.26,50.83,50.83,0,0,1,38.6-24.83l-.88-2.13c-11.32,10.78-24.89,18.69-38.32,26.5l1.51.2L168.25,146C167.18,144.81,165.42,146.59,166.48,147.79Z"/><path class="cls-5" d="M179.59,2.6a74.64,74.64,0,0,0-14.34,11.06,57.08,57.08,0,0,0-5.82,6.51c-1.51,2-2.5,4.78-.66,6.93l-.37-.89c-.08,2.08-.59,4.09-.58,6.19a37.14,37.14,0,0,0,1,8,1.26,1.26,0,0,0,2.46-.33l-.4-12.15L160.29,29A43.3,43.3,0,0,0,181.42,4c.5-1.53-1.91-2.19-2.41-.66a40.74,40.74,0,0,1-20,23.48,1.22,1.22,0,0,0-.61,1.08l.4,12.15,2.45-.33a34.43,34.43,0,0,1-.93-6.85,49.15,49.15,0,0,1,.54-5.83,2.93,2.93,0,0,0-.08-1.32c-.13-.37-.46-.58-.55-1a2.22,2.22,0,0,1,.1-1c.45-1.72,1.91-3.16,3-4.46A71.9,71.9,0,0,1,180.85,4.76,1.25,1.25,0,0,0,179.59,2.6Z"/><path class="cls-3" d="M162.25,141.16l1.19,36,.17,5.18a1.28,1.28,0,0,0,1.89,1.08c5.09-2.36,8-7.5,8.78-12.9.95-6.24-.46-12.25-3.12-17.9-1.95-4.16-4.38-8.08-6.58-12.11-.78-1.41-2.94-.15-2.16,1.26,4,7.32,9.16,14.63,9.63,23.22.35,6.36-1.62,13.4-7.82,16.27l1.88,1.08-1.19-36-.17-5.18C164.69,139.56,162.19,139.55,162.25,141.16Z"/><path class="cls-3" d="M168.16,73.67,168,77.15a1.26,1.26,0,0,0,2.13.88C182,66.49,194.56,53.93,198.51,37.3a1.26,1.26,0,0,0-2.29-1,123.45,123.45,0,0,1-17.83,19.56c-5.18,4.59-11.74,10.42-10.18,18.11.31,1.58,2.72.91,2.41-.66-1.48-7.33,6.56-12.93,11.21-17.19a126.88,126.88,0,0,0,16.55-18.56l-2.28-1c-3.85,16.22-16.19,28.4-27.73,39.63l2.14.89.15-3.48C170.73,72.06,168.23,72.07,168.16,73.67Z"/><path class="cls-3" d="M165.77,87.89c.16-1.56.38-3.13.5-4.7.24-3.1,1.16-6.25,1.54-9.38a51,51,0,0,0,.11-12.29,62.42,62.42,0,0,0-2.72-11.4c-1.37-4.25-2.91-8.45-3.94-12.81a1.25,1.25,0,0,0-2.45.33l1.13,34.21.17,4.89L162,75.66a37,37,0,0,0-8-4.29q-4.56-2-9-4.25a185.65,185.65,0,0,1-17.1-9.81A1.27,1.27,0,0,0,126,58.39c-.42,3.91-.74,8.15,1.21,11.73,1.77,3.24,5.14,5,8.47,6.26,4.31,1.64,8.75,3,13.12,4.5,4.22,1.44,8.52,2.81,12.18,5.44l-.62-1.08.31,9.3a1.25,1.25,0,0,0,2.45.33c.66-2.44,1.32-4.88,1.95-7.34l-2.09.56c.21.22.42.45.62.68,1.07,1.21,2.83-.56,1.77-1.76-.2-.24-.41-.47-.62-.69a1.26,1.26,0,0,0-2.09.55c-.63,2.45-1.29,4.89-1.95,7.34l2.46.33-.2-6c0-1,0-2-.1-3-.09-1.58-1.93-2.31-3.18-3-4.37-2.4-9.3-3.76-14-5.36-2.54-.86-5.07-1.71-7.6-2.58a25.74,25.74,0,0,1-5.64-2.53c-4.78-3.11-4.5-8.64-4-13.69l-1.88,1.08a184.34,184.34,0,0,0,17.1,9.81q4.35,2.2,8.81,4.16a38.24,38.24,0,0,1,8.17,4.38c.76.59,1.91-.21,1.88-1.08l-1.14-34.2-.16-4.9-2.46.34c1.14,4.81,2.9,9.43,4.36,14.14a49.66,49.66,0,0,1,2.53,14.94,55.85,55.85,0,0,1-.58,7.86c-.18,1.29-.4,2.58-.64,3.86a28.35,28.35,0,0,0-.75,3.71c-.08,1.6-.31,3.64-.5,5.4C163.1,89.49,165.6,89.48,165.77,87.89Z"/><path class="cls-3" d="M172.2,111a77.93,77.93,0,0,0,20.17-13.45,74.86,74.86,0,0,0,8.18-8.8c2.54-3.24,4.84-7,4.56-11.26a1.26,1.26,0,0,0-2.13-.88,379.2,379.2,0,0,1-41.16,31.93l1.88,1.08-.5-15.09a1.26,1.26,0,0,0-2.46-.33c-2.69,10-5.44,20.42-4.17,30.9l2.13-.89c-11.21-10.61-24-22.07-40.47-22a1.25,1.25,0,0,0,0,2.5c3.92,0,5.8,4.17,7,7.26a23,23,0,0,0,5.62,8.91c5.57,5.11,13.06,6.84,20.36,7.69,1.17.14,2.34.26,3.51.37.83.08,1.68.33,2.34-.28a20.92,20.92,0,0,0,1.68-2.08l-2.09-.55a47.6,47.6,0,0,0,5.73,15.71,1.26,1.26,0,0,0,2.33-.63L163.88,115l-.13-3.78-1.58,1.21c3.36,1.08,6.94,0,10-1.42,1.47-.65.2-2.81-1.26-2.16-2.48,1.11-5.42,2-8.11,1.17a1.26,1.26,0,0,0-1.58,1.2l.87,26.17.13,3.77,2.33-.63a45.74,45.74,0,0,1-5.48-15.11,1.26,1.26,0,0,0-2.09-.56L155.29,127l.88-.37c-8.28-.77-17.47-1.68-23.79-7.71a17,17,0,0,1-3.36-4.45c-1-1.87-1.59-3.9-2.49-5.81-1.56-3.31-4.38-6.39-8.3-6.39v2.5c15.71-.1,28,11.1,38.7,21.23.71.67,2.27.26,2.14-.88-1.24-10.28,1.44-20.4,4.08-30.24l-2.45-.33.5,15.09a1.26,1.26,0,0,0,1.88,1.08,384.26,384.26,0,0,0,41.66-32.32l-2.13-.89c.27,4.18-2.35,7.72-4.88,10.79A76.55,76.55,0,0,1,190,96.35a75.78,75.78,0,0,1-19.05,12.5C169.48,109.53,170.75,111.68,172.2,111Z"/><path class="cls-3" d="M166.48,145.37l1.11,1.25a1.29,1.29,0,0,0,1.52.2c13.62-7.92,27.36-16,38.82-26.9a1.27,1.27,0,0,0-.88-2.14A53.56,53.56,0,0,0,172.8,135a51.71,51.71,0,0,0-6.51,8.9,1.25,1.25,0,0,0,2.16,1.26,50.86,50.86,0,0,1,38.6-24.84l-.88-2.13c-11.32,10.79-24.89,18.7-38.32,26.51l1.51.19-1.11-1.25C167.18,142.4,165.42,144.17,166.48,145.37Z"/><path class="cls-3" d="M179.59.18a75.45,75.45,0,0,0-14.34,11.06,58,58,0,0,0-5.82,6.52c-1.51,2-2.5,4.77-.66,6.92l-.37-.88c-.08,2.07-.59,4.09-.58,6.19a37.14,37.14,0,0,0,1,8,1.26,1.26,0,0,0,2.46-.34l-.4-12.15-.62,1.08a43.32,43.32,0,0,0,21.13-25c.5-1.54-1.91-2.19-2.41-.67a40.74,40.74,0,0,1-20,23.48,1.23,1.23,0,0,0-.61,1.08l.4,12.15,2.45-.33a34.33,34.33,0,0,1-.93-6.84,49.51,49.51,0,0,1,.54-5.84,2.9,2.9,0,0,0-.08-1.31c-.13-.37-.46-.58-.55-1a2.22,2.22,0,0,1,.1-1c.45-1.73,1.91-3.16,3-4.46A71.94,71.94,0,0,1,180.85,2.34,1.25,1.25,0,0,0,179.59.18Z"/><circle class="cls-5" cx="148.6" cy="87.54" r="7.64"/><circle class="cls-5" cx="143.1" cy="132.39" r="7.64"/><circle class="cls-5" cx="180.22" cy="77.5" r="7.64"/><circle class="cls-5" cx="175" cy="116.97" r="7.64"/><path class="cls-5" d="M194.4,200.16c-30.47,0-55.49-7.81-58.27-17.8a6.84,6.84,0,0,0-.27,1.85c0,10.85,26.21,19.66,58.54,19.66s58.54-8.81,58.54-19.66a6.84,6.84,0,0,0-.27-1.85C249.89,192.35,224.87,200.16,194.4,200.16Z"/><path class="cls-5" d="M252.67,169.11V180H192.73V169.11Z"/><path class="cls-6" d="M252.67,169.11V180H192.73V169.11Z"/></g></g></svg>