<svg xmlns="http://www.w3.org/2000/svg" xmlns:xlink="http://www.w3.org/1999/xlink" viewBox="0 0 103.13 156.28"><defs><style>.cls-1,.cls-2,.cls-3,.cls-4,.cls-5{stroke:#1c75bc;stroke-miterlimit:10;stroke-width:2px;}.cls-1,.cls-2,.cls-3,.cls-4{opacity:0.57;}.cls-1{fill:url(#GRAY);}.cls-2{fill:url(#GRAY-2);}.cls-3{fill:url(#GRAY-3);}.cls-4{fill:url(#GRAY-4);}.cls-5{fill:none;}</style><linearGradient id="GRAY" x1="1.73" y1="38.59" x2="88.33" y2="38.59" gradientUnits="userSpaceOnUse"><stop offset="0" stop-color="#1c75bc"/><stop offset="0.8" stop-color="#ee2a7b"/><stop offset="0.95" stop-color="#a7a9ac"/></linearGradient><linearGradient id="GRAY-2" x1="11.28" y1="17.88" x2="97.88" y2="17.88" gradientTransform="translate(80.43 76.22) rotate(-119.78)" xlink:href="#GRAY"/><linearGradient id="GRAY-3" x1="-82.52" y1="-188.18" x2="-39.22" y2="-188.18" gradientTransform="matrix(0.86, -0.5, -0.5, -0.86, 8.47, -82.23)" xlink:href="#GRAY"/><linearGradient id="GRAY-4" x1="-128.75" y1="-161.49" x2="-85.45" y2="-161.49" gradientTransform="translate(38.36 -82.23) rotate(-149.69)" xlink:href="#GRAY"/></defs><g id="Layer_2" data-name="Layer 2"><g id="All_Text" data-name="All Text"><polygon class="cls-1" points="45.03 53.06 15.03 1.09 1.73 1.09 45.03 76.09 88.33 1.09 75.04 1.09 45.03 53.06"/><polygon class="cls-2" points="81.4 12.78 51.2 64.63 57.8 76.17 101.39 1.34 14.79 1.01 21.39 12.55 81.4 12.78"/><polyline class="cls-3" points="62.28 87.54 62.6 147.54 51.12 154.25 50.66 67.65"/><polyline class="cls-4" points="37.94 87.83 37.61 147.84 49.09 154.55 49.56 67.94"/><line class="cls-5" x1="49.56" y1="67.94" x2="37.93" y2="87.83"/><line class="cls-5" x1="62.28" y1="87.54" x2="50.65" y2="67.65"/></g></g></svg>