<svg xmlns="http://www.w3.org/2000/svg" xmlns:xlink="http://www.w3.org/1999/xlink" viewBox="0 0 172.01 249.78"><defs><style>.cls-1,.cls-12{fill:#fff;}.cls-1{stroke:#fff;}.cls-1,.cls-10,.cls-13,.cls-15,.cls-16,.cls-17,.cls-3,.cls-5,.cls-6{stroke-miterlimit:10;}.cls-13,.cls-2{fill:#fff200;}.cls-10,.cls-3,.cls-5,.cls-6{fill:none;}.cls-15,.cls-16,.cls-3,.cls-5{stroke:#1c75bc;}.cls-15,.cls-16,.cls-4{fill:#1c75bc;}.cls-10,.cls-13,.cls-15,.cls-17,.cls-5{stroke-width:2px;}.cls-10,.cls-13,.cls-17,.cls-6{stroke:#fff200;}.cls-7{fill:url(#Fading_Sky);}.cls-8{fill:url(#Fading_Sky-2);}.cls-9{fill:url(#Fading_Sky-3);}.cls-11{fill:#bcbec0;}.cls-14{opacity:0.86;}.cls-17{fill:#a7a9ac;}.cls-18{fill:url(#New_Gradient_Swatch_1);}.cls-19{fill:url(#New_Gradient_Swatch_1-2);}.cls-20{fill:url(#New_Gradient_Swatch_1-3);}</style><linearGradient id="Fading_Sky" x1="62.84" y1="165.06" x2="139.06" y2="165.06" gradientUnits="userSpaceOnUse"><stop offset="0" stop-color="#2484c6"/><stop offset="1" stop-color="#2484c6" stop-opacity="0"/></linearGradient><linearGradient id="Fading_Sky-2" x1="41.42" y1="165.43" x2="117.64" y2="165.43" xlink:href="#Fading_Sky"/><linearGradient id="Fading_Sky-3" x1="77.95" y1="165.43" x2="154.17" y2="165.43" xlink:href="#Fading_Sky"/><linearGradient id="New_Gradient_Swatch_1" x1="14.35" y1="33.11" x2="82.19" y2="33.11" gradientUnits="userSpaceOnUse"><stop offset="0" stop-color="#1c75bc" stop-opacity="0"/><stop offset="0.11" stop-color="#1c75bc"/><stop offset="0.8" stop-color="#ee2a7b"/><stop offset="0.95" stop-color="#a7a9ac"/></linearGradient><linearGradient id="New_Gradient_Swatch_1-2" x1="0" y1="50.9" x2="0.13" y2="50.9" xlink:href="#New_Gradient_Swatch_1"/><linearGradient id="New_Gradient_Swatch_1-3" x1="45.78" y1="109.93" x2="56.27" y2="109.93" xlink:href="#New_Gradient_Swatch_1"/></defs><g id="Layer_2" data-name="Layer 2"><g id="All_Text" data-name="All Text"><ellipse class="cls-1" cx="111.56" cy="225.4" rx="49.48" ry="14.8"/><ellipse class="cls-2" cx="49.03" cy="107.95" rx="11.33" ry="8.68"/><ellipse class="cls-3" cx="49.03" cy="107.95" rx="11.33" ry="8.68"/><path class="cls-4" d="M62.84,123.15c3.62.06,7.33-.13,10.93.17,1.65.14,1.79,1.83,2,3.2s.43,3,.69,4.44c.73,4.25,2.87,11.51,8.71,9.79,6-1.77,7.07-9.83,7-15.07-.07-3.48-.69-6.92-.78-10.4-.09-3,.21-6.41,2.07-8.9,1-1.41,2.16-1.53,3.8-1.29,1.44.21,3,.35,4.17-.7,1.56-1.4,2.49-4.79.56-6.29l-.88,2.14,9.84-.85,2.46-.21c.47-.05,1.58-.34,1.9.09s-.24,2.13-.38,2.7a7.63,7.63,0,0,0-.32,2.88c.22,1.61,1.11,1.82,2.54,2.18l9.47,2.4c1.24.32,2,.53,2.37,1.87a28.26,28.26,0,0,1,.59,4.59q.51,4.76,1.13,9.49,1.25,9.6,2.9,19.15,1.86,10.72,4.27,21.37l.57-1.42c-1.49.85-3.72,2.22-5.49,1.43s-2.35-2.91-3.38-4.27c-2.07-2.71-5.5-4.25-8.84-3.07a1.29,1.29,0,0,0-.92,1.2,245.47,245.47,0,0,0,1.63,27.11c1.17,8.69,3.79,17.1,5,25.77a41,41,0,0,1-.25,14.82l.88-.88a36.71,36.71,0,0,1-13,.73l1.21,1.58c1.24-4.57.56-9.46-1-13.88-1.6-4.66-4.17-8.92-5.76-13.59-2.57-7.57-3-15.75-5.93-23.2a19.2,19.2,0,0,0-6.12-8.54c-1.53-1.16-3.27-2.17-4.39-3.78-1.24-1.77-1.48-4-1.81-6.06a13.93,13.93,0,0,0-1.85-5.8,8.59,8.59,0,0,0-4.32-3.12c-1.62-.59-3.35-.84-4.94-1.5a17,17,0,0,1-4.33-2.7c-7.16-6-10.44-16-10.51-25.18a1.25,1.25,0,0,0-2.5,0A38.37,38.37,0,0,0,69.8,145,22,22,0,0,0,78,151.59c3.12,1.37,7.43,1.28,9,4.86.84,1.94.93,4.14,1.32,6.19a11.69,11.69,0,0,0,2.45,5.5,26.43,26.43,0,0,0,4.41,3.61,13.76,13.76,0,0,1,3.38,3.71,34,34,0,0,1,3.83,10.5c.93,4,1.62,8,2.62,12,1.28,5,3.52,9.57,5.61,14.3,2.18,5,3.78,10.6,2.32,16a1.27,1.27,0,0,0,1.2,1.58,38.54,38.54,0,0,0,13.62-.82,1.21,1.21,0,0,0,.88-.87c1.91-8.61.27-17.36-1.63-25.82-1-4.29-2-8.57-2.7-12.91-.74-4.57-1.17-9.2-1.45-13.82-.32-5.26-.44-10.54-.56-15.81l-.91,1.21a5,5,0,0,1,4.83.79c1.59,1.21,2.3,3.11,3.51,4.63,2.73,3.44,6.72,2.09,10,.24a1.28,1.28,0,0,0,.58-1.41q-3.24-14.31-5.5-28.82-1.14-7.32-2-14.67c-.29-2.44-.57-4.87-.82-7.31-.2-1.86-.2-4.07-1.36-5.64-1.3-1.74-3.94-1.94-5.89-2.43l-8.28-2.1.75.58c-.55-1.29.58-3.32.7-4.65a3.12,3.12,0,0,0-2.12-3.53,10.46,10.46,0,0,0-3.3.1l-3.45.3-7.87.68c-.94.08-1.83,1.4-.89,2.13.63.48.27,1.52,0,2.1-.68,1.24-2,.72-3.21.56a5.69,5.69,0,0,0-5.75,2.72c-3.53,5.15-2.16,11.92-1.69,17.69a28.38,28.38,0,0,1-.48,9.24c-.61,2.41-1.89,5.37-4.5,6.16-4.93,1.49-5.68-8.17-6.11-11s-.86-6.18-4.3-6.47c-3.72-.31-7.54-.13-11.27-.19a1.25,1.25,0,0,0,0,2.5Z"/><path class="cls-4" d="M41.42,123.52c3.61.06,7.32-.12,10.92.18,1.66.13,1.79,1.83,2,3.19s.43,3,.69,4.44c.73,4.25,2.87,11.52,8.72,9.8,6-1.77,7.07-9.84,7-15.08-.06-3.48-.69-6.92-.78-10.4-.08-3,.21-6.41,2.07-8.9,1.06-1.41,2.16-1.53,3.81-1.28,1.43.21,3,.34,4.16-.7,1.56-1.41,2.49-4.8.56-6.29l-.88,2.13,9.85-.85L92,99.55c.47,0,1.58-.34,1.9.09s-.25,2.13-.39,2.71a7.8,7.8,0,0,0-.32,2.88c.22,1.6,1.12,1.81,2.55,2.17l9.47,2.4c1.23.32,2,.54,2.37,1.87a29.39,29.39,0,0,1,.58,4.59c.35,3.17.72,6.33,1.13,9.49q1.24,9.6,2.9,19.15,1.86,10.74,4.27,21.37l.58-1.41c-1.49.84-3.73,2.21-5.5,1.42s-2.35-2.91-3.38-4.26c-2.07-2.72-5.5-4.26-8.84-3.08a1.27,1.27,0,0,0-.91,1.2A243.23,243.23,0,0,0,100,187.26c1.17,8.69,3.79,17.09,5,25.76a41.23,41.23,0,0,1-.24,14.82l.87-.87a36.64,36.64,0,0,1-13,.72l1.2,1.58c1.24-4.57.57-9.46-1-13.88-1.6-4.66-4.17-8.92-5.76-13.59-2.57-7.57-3-15.74-5.93-23.19a19,19,0,0,0-6.12-8.54c-1.53-1.17-3.27-2.18-4.39-3.79-1.23-1.77-1.48-4-1.8-6.05a13.94,13.94,0,0,0-1.86-5.81,8.62,8.62,0,0,0-4.31-3.12c-1.63-.58-3.35-.84-4.95-1.5a17.08,17.08,0,0,1-4.33-2.7c-7.15-6-10.43-16-10.51-25.18a1.25,1.25,0,0,0-2.5,0,38.37,38.37,0,0,0,7.87,23.45A22.11,22.11,0,0,0,56.6,152c3.12,1.36,7.43,1.27,9,4.85.84,1.94.93,4.14,1.33,6.19a11.5,11.5,0,0,0,2.45,5.5,26.35,26.35,0,0,0,4.4,3.61,13.74,13.74,0,0,1,3.38,3.71A34.05,34.05,0,0,1,81,186.33c.93,4,1.62,8,2.63,12,1.27,5,3.51,9.57,5.6,14.3,2.19,5,3.78,10.6,2.32,16a1.27,1.27,0,0,0,1.21,1.58,38.8,38.8,0,0,0,13.62-.81,1.25,1.25,0,0,0,.87-.88c1.91-8.61.27-17.36-1.63-25.82-1-4.29-2-8.57-2.69-12.91A136,136,0,0,1,101.44,176c-.32-5.26-.44-10.53-.56-15.81l-.92,1.21a5,5,0,0,1,4.83.79c1.6,1.21,2.3,3.11,3.52,4.64,2.72,3.43,6.71,2.08,10,.24a1.29,1.29,0,0,0,.57-1.42q-3.23-14.31-5.5-28.81-1.14-7.33-2-14.68c-.29-2.44-.57-4.87-.82-7.31-.2-1.86-.19-4.07-1.36-5.63-1.3-1.74-3.93-1.94-5.88-2.44L95,104.63l.75.58c-.55-1.29.58-3.32.7-4.65A3.13,3.13,0,0,0,94.29,97a10.52,10.52,0,0,0-3.31.1l-3.44.3-7.88.68c-.94.08-1.83,1.4-.89,2.13.63.49.28,1.52,0,2.1-.68,1.24-2,.73-3.21.57a5.69,5.69,0,0,0-5.76,2.71c-3.53,5.16-2.15,11.92-1.69,17.7a28.33,28.33,0,0,1-.48,9.23c-.61,2.41-1.88,5.38-4.5,6.16-4.93,1.49-5.68-8.17-6.1-11s-.87-6.17-4.31-6.46c-3.72-.32-7.54-.14-11.26-.2a1.25,1.25,0,0,0,0,2.5Z"/><path class="cls-4" d="M78,123.52c3.62.06,7.33-.12,10.93.18,1.65.13,1.79,1.83,2,3.19s.43,3,.69,4.44c.73,4.25,2.87,11.52,8.71,9.8,6-1.77,7.07-9.84,7-15.08-.07-3.48-.69-6.92-.78-10.4-.08-3,.21-6.41,2.07-8.9,1-1.41,2.16-1.53,3.81-1.28,1.43.21,3,.34,4.16-.7,1.56-1.41,2.49-4.8.56-6.29l-.88,2.13,9.84-.85,2.47-.21c.46,0,1.57-.34,1.89.09s-.24,2.13-.38,2.71a7.59,7.59,0,0,0-.32,2.88c.22,1.6,1.11,1.81,2.54,2.17l9.47,2.4c1.24.32,2,.54,2.38,1.87a29.39,29.39,0,0,1,.58,4.59q.51,4.76,1.13,9.49,1.24,9.6,2.9,19.15,1.86,10.74,4.27,21.37l.57-1.41c-1.49.84-3.72,2.21-5.49,1.42s-2.35-2.91-3.38-4.26c-2.07-2.72-5.5-4.26-8.84-3.08a1.29,1.29,0,0,0-.92,1.2,245.65,245.65,0,0,0,1.63,27.12c1.17,8.69,3.79,17.09,5,25.76a41.23,41.23,0,0,1-.24,14.82l.87-.87a36.71,36.71,0,0,1-13,.72l1.21,1.58c1.24-4.57.56-9.46-1-13.88-1.6-4.66-4.17-8.92-5.76-13.59-2.57-7.57-3-15.74-5.93-23.19a19.09,19.09,0,0,0-6.12-8.54c-1.53-1.17-3.27-2.18-4.39-3.79-1.23-1.77-1.48-4-1.81-6.05a13.92,13.92,0,0,0-1.85-5.81,8.65,8.65,0,0,0-4.32-3.12c-1.62-.58-3.35-.84-4.94-1.5a16.74,16.74,0,0,1-4.33-2.7c-7.16-6-10.43-16-10.51-25.18a1.25,1.25,0,0,0-2.5,0,38.37,38.37,0,0,0,7.87,23.45,22,22,0,0,0,8.23,6.6c3.12,1.36,7.43,1.27,9,4.85.84,1.94.93,4.14,1.33,6.19a11.58,11.58,0,0,0,2.44,5.5,26.43,26.43,0,0,0,4.41,3.61,13.74,13.74,0,0,1,3.38,3.71,34.05,34.05,0,0,1,3.83,10.5c.93,4,1.62,8,2.62,12,1.28,5,3.52,9.57,5.61,14.3,2.18,5,3.78,10.6,2.32,16a1.27,1.27,0,0,0,1.2,1.58,38.77,38.77,0,0,0,13.62-.81,1.24,1.24,0,0,0,.88-.88c1.91-8.61.27-17.36-1.63-25.82-1-4.29-2-8.57-2.7-12.91A138.88,138.88,0,0,1,138,176c-.32-5.26-.44-10.53-.56-15.81l-.91,1.21a5,5,0,0,1,4.83.79c1.59,1.21,2.3,3.11,3.51,4.64,2.73,3.43,6.72,2.08,10,.24a1.3,1.3,0,0,0,.58-1.42q-3.24-14.31-5.5-28.81-1.14-7.33-2-14.68c-.29-2.44-.57-4.87-.82-7.31-.2-1.86-.2-4.07-1.36-5.63-1.3-1.74-3.94-1.94-5.89-2.44l-8.28-2.1.75.58c-.55-1.29.58-3.32.7-4.65A3.12,3.12,0,0,0,130.82,97a10.46,10.46,0,0,0-3.3.1l-3.45.3-7.87.68c-.94.08-1.83,1.4-.89,2.13.63.49.27,1.52,0,2.1-.68,1.24-2,.73-3.21.57a5.67,5.67,0,0,0-5.75,2.71c-3.53,5.16-2.16,11.92-1.69,17.7a28.33,28.33,0,0,1-.48,9.23c-.61,2.41-1.89,5.38-4.5,6.16-4.93,1.49-5.68-8.17-6.11-11s-.86-6.17-4.3-6.46c-3.72-.32-7.54-.14-11.27-.2a1.25,1.25,0,0,0,0,2.5Z"/><circle class="cls-5" cx="87.93" cy="88.91" r="13.99"/><circle class="cls-5" cx="122.28" cy="88.91" r="13.99"/><ellipse class="cls-2" cx="49.03" cy="109.93" rx="11.33" ry="8.68"/><ellipse class="cls-6" cx="49.03" cy="109.93" rx="11.33" ry="8.68"/><path class="cls-7" d="M62.84,124.48l10.59.16a3.17,3.17,0,0,1,2.25.64,6,6,0,0,1,1.31,3.4c.75,4.68,1.25,10.31,4.34,12.52,2.55,1.81,5.88.13,7.61-3s2.13-7.33,1.91-11.27-1-7.82-.67-11.73,2.16-8,5-8.49c1.59-.27,3.22.63,4.77.11s2.59-3.84,1.14-4.76l13.29-1.12a1.88,1.88,0,0,1,1.86.57c1.25,1.72-1.21,4.91-.19,6.9l11.36,2.81a3.64,3.64,0,0,1,2.06,1.06,7.2,7.2,0,0,1,1.06,3.71,421.74,421.74,0,0,0,8.53,51.27c-2.48,1.4-5.46,2.76-7.71.75a21.83,21.83,0,0,1-2.63-3.65c-2-2.68-5-3.78-7.67-2.77.25,10.63.51,21.37,2.47,31.65,2.21,11.6,6.59,23.56,3.91,35a37,37,0,0,1-13.29.76c1.3-4.42.36-9.5-1.24-13.72s-3.83-7.94-5.36-12.21C104,193,104,179.49,97.16,173.33c-2.32-2.11-5.34-3.19-6.8-6.45-1.32-2.93-1-6.92-2.52-9.67-1.67-3-4.8-3.33-7.5-4.11-9.58-2.77-17.12-15.5-17.16-29"/><path class="cls-2" d="M62.84,125.73c3.62.06,7.32-.12,10.93.17,1.64.13,1.78,1.74,2,3.11s.44,3,.7,4.46c.76,4.24,3,11.15,8.7,9.5s7-9.26,7-14.36c0-3.68-.75-7.31-.8-11,0-2.92.31-6.5,2.43-8.74s5.54.58,7.79-1.69c1.63-1.64,2.13-4.72.14-6.23l-.63,2.33,9.84-.83,2.22-.19c.44,0,1.49-.34,1.9-.12.72.39.09,1.92-.06,2.51a8.53,8.53,0,0,0-.42,3c.13,1.45.76,1.87,2.09,2.21l9.23,2.29c1.27.31,2.56.38,3,1.78a21.87,21.87,0,0,1,.62,4.5q.53,4.74,1.15,9.47,1.25,9.47,2.91,18.86,1.86,10.47,4.26,20.84l.57-1.41c-1.49.83-3.68,2.14-5.46,1.41s-2.38-2.84-3.41-4.18a8,8,0,0,0-8.84-3,1.28,1.28,0,0,0-.92,1.2,238.34,238.34,0,0,0,1.63,26.57c1.17,8.52,3.81,16.75,5,25.25a39.54,39.54,0,0,1-.25,14.47l.88-.87a37.67,37.67,0,0,1-13,.71l1.21,1.58c1.24-4.48.56-9.28-1-13.61-1.6-4.57-4.17-8.74-5.76-13.32-2.6-7.5-3-15.64-6-23a18.65,18.65,0,0,0-6.14-8.2c-1.48-1.1-3.16-2.06-4.25-3.6-1.27-1.77-1.5-4-1.84-6.11a12.48,12.48,0,0,0-2-5.78,8.68,8.68,0,0,0-4.25-2.84c-1.58-.54-3.25-.79-4.8-1.42a17.12,17.12,0,0,1-4.38-2.68c-7.06-5.88-10.37-15.63-10.45-24.6a1.25,1.25,0,0,0-2.5,0A37.19,37.19,0,0,0,69.72,147a22.19,22.19,0,0,0,8,6.44c3,1.34,7.42,1.26,9.12,4.54,1,1.9,1.06,4.21,1.45,6.27a11.47,11.47,0,0,0,2.36,5.38,22.17,22.17,0,0,0,4.24,3.47,13.73,13.73,0,0,1,3.54,3.63c2,3.09,3,6.74,3.91,10.3.94,3.92,1.63,7.9,2.64,11.81,1.27,4.95,3.49,9.39,5.58,14,2.2,4.87,3.84,10.42,2.37,15.73a1.27,1.27,0,0,0,1.2,1.59,39.49,39.49,0,0,0,13.62-.8,1.26,1.26,0,0,0,.88-.88c1.9-8.39.29-16.92-1.6-25.16-1-4.26-2-8.5-2.73-12.82a132.59,132.59,0,0,1-1.45-13.5c-.32-5.15-.44-10.31-.56-15.47l-.91,1.21a5.09,5.09,0,0,1,4.83.77c1.59,1.17,2.3,3,3.51,4.53,2.73,3.39,6.72,2,10,.24a1.28,1.28,0,0,0,.58-1.41q-3.21-13.92-5.47-28c-.78-4.86-1.47-9.75-2.08-14.64q-.43-3.51-.81-7c-.2-1.88-.2-4.13-1.46-5.67s-4.08-1.85-6-2.33l-8.05-2,.75.57c-.54-1.24.58-3.24.7-4.53a3.07,3.07,0,0,0-2.12-3.48,10.46,10.46,0,0,0-3.3.09l-3.45.29-7.87.67a1.26,1.26,0,0,0-.64,2.33c.42.32-.18,1.66-.36,1.95-.72,1.11-2.22.53-3.31.4a5.8,5.8,0,0,0-5.77,3c-3.36,5.19-1.91,11.76-1.47,17.51a26,26,0,0,1-.63,9c-.65,2.3-2.07,5.2-4.69,5.7-4.81.93-5.41-8.27-5.86-11.19-.41-2.71-1-5.74-4.25-6-3.72-.32-7.54-.13-11.27-.19a1.25,1.25,0,0,0,0,2.5Z"/><path class="cls-8" d="M41.42,124.85,52,125a3.15,3.15,0,0,1,2.25.64,6,6,0,0,1,1.3,3.39c.75,4.68,1.25,10.31,4.35,12.52,2.54,1.82,5.87.13,7.61-3s2.13-7.34,1.9-11.27-1-7.83-.67-11.73,2.17-8,5-8.49c1.58-.27,3.21.62,4.76.11s2.59-3.85,1.14-4.76L93,101.28a1.89,1.89,0,0,1,1.86.57c1.25,1.72-1.21,4.91-.19,6.9L106,111.57a3.58,3.58,0,0,1,2.06,1.06,7.16,7.16,0,0,1,1.06,3.7,421.59,421.59,0,0,0,8.54,51.28c-2.49,1.4-5.46,2.75-7.72.75a23.13,23.13,0,0,1-2.63-3.66c-2-2.68-5-3.77-7.66-2.76.24,10.62.5,21.36,2.46,31.65,2.22,11.6,6.59,23.55,3.91,35a37.16,37.16,0,0,1-13.28.75c1.29-4.41.36-9.5-1.24-13.72s-3.84-7.94-5.37-12.21c-3.59-10-3.58-23.52-10.38-29.69-2.32-2.11-5.33-3.19-6.8-6.45-1.31-2.93-1-6.92-2.52-9.66-1.67-3-4.79-3.33-7.49-4.11-9.59-2.78-17.13-15.51-17.17-29"/><path class="cls-2" d="M41.42,126.1c3.61.05,7.32-.13,10.92.16,1.65.14,1.79,1.75,2,3.11s.44,3,.71,4.47c.76,4.24,3,11.15,8.7,9.49s7-9.25,7-14.36c0-3.67-.74-7.31-.8-11-.05-2.93.31-6.5,2.44-8.74s5.53.57,7.79-1.7c1.63-1.63,2.12-4.71.13-6.22l-.63,2.33,9.85-.84,2.21-.18c.44,0,1.49-.35,1.9-.13.73.39.09,1.93-.06,2.51a8.79,8.79,0,0,0-.42,3c.14,1.44.76,1.87,2.09,2.2l9.24,2.29c1.27.32,2.56.38,3,1.78a22,22,0,0,1,.62,4.51q.52,4.74,1.15,9.46,1.24,9.47,2.91,18.86,1.88,10.49,4.26,20.85l.58-1.41c-1.5.83-3.69,2.14-5.46,1.4s-2.39-2.84-3.42-4.17a8,8,0,0,0-8.84-3,1.28,1.28,0,0,0-.91,1.21A233.33,233.33,0,0,0,100,188.5c1.16,8.53,3.8,16.75,5,25.26a39.71,39.71,0,0,1-.25,14.46l.87-.87a37.12,37.12,0,0,1-13,.71l1.2,1.58c1.24-4.48.56-9.28-1-13.6-1.6-4.58-4.17-8.74-5.76-13.32-2.6-7.5-3-15.64-6-23A18.68,18.68,0,0,0,75,171.53c-1.49-1.1-3.17-2.06-4.26-3.6-1.26-1.78-1.49-4-1.84-6.12a12.58,12.58,0,0,0-2-5.77,8.68,8.68,0,0,0-4.26-2.84c-1.58-.54-3.25-.79-4.8-1.43a16.81,16.81,0,0,1-4.38-2.67c-7.06-5.88-10.37-15.64-10.45-24.6a1.25,1.25,0,0,0-2.5,0,37.23,37.23,0,0,0,7.79,22.88,22,22,0,0,0,8,6.44c3,1.35,7.41,1.26,9.11,4.55,1,1.9,1.06,4.2,1.46,6.27A11.46,11.46,0,0,0,69.23,170a21.86,21.86,0,0,0,4.25,3.47A13.89,13.89,0,0,1,77,177.12a32.28,32.28,0,0,1,3.91,10.29c.94,3.93,1.64,7.91,2.64,11.82,1.27,4.94,3.49,9.38,5.58,14,2.2,4.87,3.85,10.42,2.37,15.74a1.27,1.27,0,0,0,1.21,1.58,39.27,39.27,0,0,0,13.62-.8,1.22,1.22,0,0,0,.87-.87c1.9-8.4.29-16.92-1.6-25.17-1-4.26-2-8.5-2.73-12.81a132.89,132.89,0,0,1-1.45-13.5c-.31-5.15-.43-10.32-.55-15.47l-.92,1.2a5.12,5.12,0,0,1,4.83.77c1.59,1.18,2.31,3,3.52,4.54,2.72,3.38,6.72,2,10,.24a1.26,1.26,0,0,0,.57-1.41q-3.21-13.93-5.47-28-1.17-7.31-2.08-14.64-.44-3.52-.81-7c-.2-1.88-.2-4.14-1.46-5.68s-4.07-1.85-6-2.33l-8-2,.75.58c-.54-1.25.58-3.25.7-4.54a3.06,3.06,0,0,0-2.11-3.48,10.52,10.52,0,0,0-3.31.1l-3.44.29-7.88.67a1.25,1.25,0,0,0-.63,2.32c.41.32-.19,1.67-.37,2-.71,1.12-2.21.53-3.31.4a5.79,5.79,0,0,0-5.76,3c-3.36,5.2-1.92,11.77-1.48,17.52a25.89,25.89,0,0,1-.62,9c-.66,2.31-2.08,5.21-4.7,5.71-4.8.92-5.41-8.27-5.85-11.2-.42-2.71-1-5.74-4.26-6-3.71-.31-7.54-.13-11.26-.18a1.25,1.25,0,0,0,0,2.5Z"/><path class="cls-9" d="M78,124.85l10.59.16a3.12,3.12,0,0,1,2.25.64A6,6,0,0,1,92.1,129c.75,4.68,1.25,10.31,4.34,12.52,2.55,1.82,5.88.13,7.61-3s2.13-7.34,1.91-11.27-1-7.83-.67-11.73,2.16-8,5-8.49c1.59-.27,3.22.62,4.77.11s2.59-3.85,1.14-4.76l13.29-1.13a1.9,1.9,0,0,1,1.86.57c1.25,1.72-1.21,4.91-.19,6.9l11.36,2.82a3.58,3.58,0,0,1,2.06,1.06,7.16,7.16,0,0,1,1.06,3.7,421.58,421.58,0,0,0,8.53,51.28c-2.48,1.4-5.45,2.75-7.71.75a21.92,21.92,0,0,1-2.63-3.66c-2-2.68-5-3.77-7.67-2.76.25,10.62.51,21.36,2.47,31.65,2.21,11.6,6.59,23.55,3.91,35a37.21,37.21,0,0,1-13.29.75c1.3-4.41.36-9.5-1.24-13.72s-3.83-7.94-5.36-12.21c-3.59-10-3.58-23.52-10.38-29.69-2.32-2.11-5.34-3.19-6.8-6.45-1.32-2.93-1-6.92-2.52-9.66-1.67-3-4.8-3.33-7.49-4.11-9.59-2.78-17.13-15.51-17.17-29"/><path class="cls-2" d="M78,126.1c3.62.05,7.33-.13,10.93.16,1.64.14,1.78,1.75,2,3.11s.44,3,.71,4.47c.75,4.24,3,11.15,8.69,9.49s7-9.25,7-14.36c0-3.67-.75-7.31-.8-11,0-2.93.31-6.5,2.43-8.74s5.54.57,7.79-1.7c1.63-1.63,2.13-4.71.14-6.22l-.63,2.33,9.84-.84,2.22-.18c.44,0,1.49-.35,1.9-.13.72.39.09,1.93-.06,2.51a8.55,8.55,0,0,0-.42,3c.13,1.44.76,1.87,2.09,2.2l9.23,2.29c1.27.32,2.56.38,3,1.78a22,22,0,0,1,.62,4.51q.53,4.74,1.15,9.46,1.24,9.47,2.91,18.86,1.86,10.49,4.26,20.85l.57-1.41c-1.49.83-3.68,2.14-5.46,1.4s-2.38-2.84-3.41-4.17a8,8,0,0,0-8.84-3,1.3,1.3,0,0,0-.92,1.21,238,238,0,0,0,1.63,26.56c1.17,8.53,3.81,16.75,5,25.26a39.71,39.71,0,0,1-.24,14.46l.87-.87a37.18,37.18,0,0,1-13,.71l1.21,1.58c1.24-4.48.56-9.28-1-13.6-1.6-4.58-4.17-8.74-5.76-13.32-2.6-7.5-3-15.64-6-23a18.62,18.62,0,0,0-6.14-8.19c-1.48-1.1-3.16-2.06-4.25-3.6-1.27-1.78-1.5-4-1.84-6.12a12.48,12.48,0,0,0-2-5.77,8.61,8.61,0,0,0-4.25-2.84c-1.58-.54-3.25-.79-4.8-1.43A16.81,16.81,0,0,1,90,149.1c-7.06-5.88-10.37-15.64-10.45-24.6a1.25,1.25,0,0,0-2.5,0,37.17,37.17,0,0,0,7.79,22.88,22.09,22.09,0,0,0,8,6.44c3,1.35,7.42,1.26,9.12,4.55,1,1.9,1.06,4.2,1.45,6.27a11.47,11.47,0,0,0,2.36,5.37,21.8,21.8,0,0,0,4.24,3.47,13.92,13.92,0,0,1,3.54,3.64,32.28,32.28,0,0,1,3.91,10.29c.94,3.93,1.63,7.91,2.64,11.82,1.27,4.94,3.49,9.38,5.58,14,2.2,4.87,3.84,10.42,2.37,15.74a1.26,1.26,0,0,0,1.2,1.58,39.25,39.25,0,0,0,13.62-.8,1.23,1.23,0,0,0,.88-.87c1.9-8.4.29-16.92-1.6-25.17-1-4.26-2-8.5-2.73-12.81a132.89,132.89,0,0,1-1.45-13.5c-.32-5.15-.44-10.32-.56-15.47l-.91,1.2a5.12,5.12,0,0,1,4.83.77c1.59,1.18,2.3,3,3.51,4.54,2.73,3.38,6.72,2,10,.24a1.28,1.28,0,0,0,.58-1.41q-3.21-13.93-5.47-28-1.17-7.31-2.08-14.64-.44-3.52-.81-7c-.2-1.88-.2-4.14-1.46-5.68s-4.08-1.85-6-2.33l-8-2,.75.58c-.54-1.25.58-3.25.7-4.54a3.07,3.07,0,0,0-2.12-3.48,10.46,10.46,0,0,0-3.3.1l-3.45.29-7.87.67a1.26,1.26,0,0,0-.64,2.32c.42.32-.18,1.67-.36,2-.72,1.12-2.22.53-3.31.4a5.82,5.82,0,0,0-5.77,3c-3.36,5.2-1.91,11.77-1.47,17.52a25.89,25.89,0,0,1-.63,9c-.65,2.31-2.07,5.21-4.69,5.71-4.81.92-5.41-8.27-5.86-11.2-.41-2.71-1-5.74-4.25-6-3.72-.31-7.54-.13-11.27-.18a1.25,1.25,0,0,0,0,2.5Z"/><circle class="cls-10" cx="87.93" cy="91.98" r="13.99"/><circle class="cls-10" cx="122.28" cy="91.98" r="13.99"/><path class="cls-4" d="M113.47,246.07c-30.47,0-55.49-7.81-58.27-17.8a6.83,6.83,0,0,0-.26,1.85c0,10.86,26.2,19.66,58.53,19.66S172,241,172,230.12a7.25,7.25,0,0,0-.26-1.85C169,238.26,143.94,246.07,113.47,246.07Z"/><circle class="cls-11" cx="122.28" cy="91.26" r="15.7"/><circle class="cls-5" cx="122.28" cy="91.26" r="15.7"/><circle class="cls-12" cx="104.47" cy="89.49" r="15.7"/><circle class="cls-5" cx="104.47" cy="89.49" r="15.7"/><circle class="cls-2" cx="87.1" cy="90.66" r="15.7"/><circle class="cls-5" cx="87.1" cy="90.66" r="15.7"/><line class="cls-10" x1="49.03" y1="88.73" x2="49.03" y2="50.88"/><polygon class="cls-13" points="49.03 88.73 54.21 77.94 43.84 77.94 49.03 88.73"/><g class="cls-14"><polygon class="cls-15" points="146.8 52.88 111.81 33.95 106.98 27.44 113.93 25.83 107.22 18.43 107.72 18.43 99.39 4 91.12 18.32 83.97 21.18 34.92 8.51 57.03 31.95 17.68 47.69 13.05 49.03 69.06 41.73 68.64 41.93 146.8 52.88"/><path class="cls-16" d="M77.49,24.09c-.31.14-66.29,26.49-16.74,6.69-9.54-.86-10-1.23-16.2,6.48l-23.5,9.4c-7.65,1.64,1.85.63,17.4-1.36,7.13-4.75,19-10.15,32.79-14.61,21.6-7,10.48-10,15-6.45"/><path class="cls-16" d="M4,52.88l0,0C4.18,52.89,4.16,52.87,4,52.88Z"/></g><g class="cls-14"><polygon class="cls-17" points="142.8 50.88 107.81 31.95 102.98 25.44 109.93 23.83 103.22 16.43 103.72 16.43 95.39 2 87.12 16.32 79.97 19.18 30.92 6.51 53.03 29.95 13.68 45.69 9.05 47.03 65.06 39.73 64.64 39.93 142.8 50.88"/><path class="cls-18" d="M73.49,22.09c-.31.14-66.29,26.49-16.74,6.69-9.54-.86-10-1.23-16.2,6.48l-23.5,9.4c-7.65,1.64,1.85.63,17.4-1.36,7.13-4.75,19-10.15,32.79-14.61,21.6-7,10.48-10,15-6.45"/><path class="cls-19" d="M0,50.88l0,0C.18,50.89.16,50.87,0,50.88Z"/></g><path class="cls-20" d="M51.64,104.33c0,.29-.07.33-.37.34a1.32,1.32,0,0,0-.77.24.93.93,0,0,0-.4,1c.26,1.31.54,2.61.81,3.92l.05.07.73-1c.54-.77,1.09-1.53,1.62-2.3a2,2,0,0,0,.42-1.14.73.73,0,0,0-.47-.69l-.27-.07c-.08,0-.19,0-.16-.13s0-.22.2-.22c1,0,2.06,0,3.1,0,.09,0,.15,0,.14.13s0,.19-.1.21a1.7,1.7,0,0,0-1.16.8c-1.3,1.77-2.59,3.55-3.88,5.32A.44.44,0,0,0,51,111l-.9,3.2a.78.78,0,0,0,.79,1l.62,0c0,.24,0,.29-.23.29H45.79c0-.22,0-.27.2-.3a4.44,4.44,0,0,0,.62-.1,1.24,1.24,0,0,0,.94-.89c.35-1.18.7-2.36,1-3.54a1.15,1.15,0,0,0,0-.48c-.31-1.35-.63-2.71-.95-4.06a5,5,0,0,0-.17-.55,1.28,1.28,0,0,0-1-.92c-.07,0-.21,0-.18-.13s0-.23.23-.23c1.14,0,2.27,0,3.4,0h1.8Z"/><path class="cls-12" d="M49.64,104.33c0,.29-.07.33-.37.34a1.32,1.32,0,0,0-.77.24.93.93,0,0,0-.4,1c.26,1.31.54,2.61.81,3.92l.05.07.73-1c.54-.77,1.09-1.53,1.62-2.3a2,2,0,0,0,.42-1.14.73.73,0,0,0-.47-.69l-.27-.07c-.08,0-.19,0-.16-.13s0-.22.2-.22c1,0,2.06,0,3.1,0,.09,0,.15,0,.14.13s0,.19-.1.21a1.7,1.7,0,0,0-1.16.8c-1.3,1.77-2.59,3.55-3.88,5.32A.44.44,0,0,0,49,111l-.9,3.2a.78.78,0,0,0,.79,1l.62,0c0,.24,0,.29-.23.29H43.79c0-.22,0-.27.2-.3a4.44,4.44,0,0,0,.62-.1,1.24,1.24,0,0,0,.94-.89c.35-1.18.7-2.36,1-3.54a1.15,1.15,0,0,0,0-.48c-.31-1.35-.63-2.71-.95-4.06a5,5,0,0,0-.17-.55,1.28,1.28,0,0,0-1-.92c-.07,0-.21,0-.18-.13s0-.23.23-.23c1.14,0,2.27,0,3.4,0h1.8Z"/></g></g></svg>