<svg xmlns="http://www.w3.org/2000/svg" width="100" height="80" viewBox="0 0 100 80">
  <path id="Icon_awesome-user-check" data-name="Icon awesome-user-check" d="M35,40A20,20,0,1,0,15,20,20,20,0,0,0,35,40Zm14,5H46.391a27.2,27.2,0,0,1-22.781,0H21A21.005,21.005,0,0,0,0,66v6.5A7.5,7.5,0,0,0,7.5,80h55A7.5,7.5,0,0,0,70,72.5V66A21.005,21.005,0,0,0,49,45ZM99.469,24.937l-4.344-4.391a1.853,1.853,0,0,0-2.625-.016L76.125,36.781l-7.109-7.156a1.853,1.853,0,0,0-2.625-.016L62,33.969a1.853,1.853,0,0,0-.016,2.625L74.75,49.453a1.853,1.853,0,0,0,2.625.016L99.453,27.562a1.867,1.867,0,0,0,.016-2.625Z" fill="#2036ff"/>
</svg>
