<svg xmlns="http://www.w3.org/2000/svg" width="100" height="129.991" viewBox="0 0 100 129.991">
  <path id="Icon_ionic-md-flame" data-name="Icon ionic-md-flame" d="M99.627,57.813l-.062,3.249c-.25,3.655-2.468,13.558-6.9,17.088a43.689,43.689,0,0,0,3.187-25.836C89.724,21.855,66.575,8.922,37.053,4.048L31.68,3.361C44.02,18.106,49.205,28.884,47.206,39.85c-.719,3.936-3.124,7.31-4.374,9.872a48,48,0,0,0,.625-8.966c-.094-4.436-2.062-9.684-5.623-12.371a20.547,20.547,0,0,1-2.843,14.9C27.275,56.469,8.312,61.343,6.75,85.71V86.9c0,16.776,8,30.928,21.462,39.05-2.124-3.843-3.749-11-1.781-18.807,1.25,7.4,4.374,11.246,7.779,16.182A21.85,21.85,0,0,0,44.551,131.1c4.374,1.749,9.684,2.249,14.964,2.249,17.432,0,28.554-5.654,37.207-15.776s10.028-21.243,10.028-33.24S104.095,65.31,99.627,57.813Z" transform="translate(-6.75 -3.361)" fill="#2036ff"/>
</svg>
