<svg xmlns="http://www.w3.org/2000/svg" width="23" height="26.286" viewBox="0 0 23 26.286">
  <path id="Icon_awesome-discord" data-name="Icon awesome-discord" d="M15.259,12.486a1.345,1.345,0,1,1-1.341-1.459A1.4,1.4,0,0,1,15.259,12.486ZM9.121,11.027a1.464,1.464,0,0,0,0,2.918,1.4,1.4,0,0,0,1.341-1.459A1.392,1.392,0,0,0,9.121,11.027ZM23,2.707V26.286c-3.311-2.926-2.252-1.957-6.1-5.533l.7,2.431H2.694A2.7,2.7,0,0,1,0,20.477V2.707A2.7,2.7,0,0,1,2.694,0H20.306A2.7,2.7,0,0,1,23,2.707ZM19.254,15.167A17.6,17.6,0,0,0,17.362,7.5a6.5,6.5,0,0,0-3.693-1.38l-.184.21A8.747,8.747,0,0,1,16.757,8a11.167,11.167,0,0,0-9.818-.381C6.453,7.846,6.164,8,6.164,8A8.867,8.867,0,0,1,9.621,6.282l-.131-.158A6.5,6.5,0,0,0,5.8,7.5,17.6,17.6,0,0,0,3.9,15.167a4.765,4.765,0,0,0,4.009,2s.486-.591.881-1.091a4.088,4.088,0,0,1-2.3-1.551c.193.135.512.311.539.329a9.58,9.58,0,0,0,8.2.46,7.521,7.521,0,0,0,1.511-.775A4.147,4.147,0,0,1,14.365,16.1c.394.5.867,1.065.867,1.065A4.8,4.8,0,0,0,19.254,15.167Z"/>
</svg>
