<svg xmlns="http://www.w3.org/2000/svg" width="21" height="20.475" viewBox="0 0 21 20.475">
  <path id="Icon_awesome-github" data-name="Icon awesome-github" d="M7.024,17.049c0,.085-.1.152-.22.152-.14.013-.237-.055-.237-.152s.1-.152.22-.152S7.024,16.952,7.024,17.049Zm-1.317-.191c-.03.085.055.182.182.207a.2.2,0,0,0,.263-.085c.025-.085-.055-.182-.182-.22A.217.217,0,0,0,5.707,16.859Zm1.871-.072c-.123.03-.207.11-.195.207s.123.14.25.11.207-.11.195-.195S7.7,16.774,7.579,16.787ZM10.365.563A10.152,10.152,0,0,0,0,10.893,10.615,10.615,0,0,0,7.176,21.021c.542.1.732-.237.732-.512S7.9,18.8,7.9,17.909c0,0-2.964.635-3.586-1.262,0,0-.483-1.232-1.177-1.55,0,0-.97-.665.068-.652a2.235,2.235,0,0,1,1.634,1.092,2.238,2.238,0,0,0,3.086.885A2.353,2.353,0,0,1,8.6,15c-2.367-.262-4.755-.605-4.755-4.678a3.209,3.209,0,0,1,1-2.494,4,4,0,0,1,.11-2.875c.885-.275,2.921,1.143,2.921,1.143a10,10,0,0,1,5.318,0s2.036-1.423,2.921-1.143a4,4,0,0,1,.11,2.875,3.291,3.291,0,0,1,1.092,2.494c0,4.086-2.494,4.412-4.86,4.678a2.5,2.5,0,0,1,.72,1.965c0,1.427-.013,3.192-.013,3.54,0,.275.195.61.732.512A10.517,10.517,0,0,0,21,10.893,10.381,10.381,0,0,0,10.365.563Zm-6.249,14.6c-.055.042-.042.14.03.22s.165.1.22.042.042-.14-.03-.22S4.17,15.11,4.115,15.165Zm-.457-.343c-.03.055.013.123.1.165a.126.126,0,0,0,.182-.03c.03-.055-.013-.123-.1-.165C3.755,14.767,3.688,14.78,3.658,14.822ZM5.03,16.329c-.068.055-.042.182.055.263.1.1.22.11.275.042s.03-.182-.055-.262C5.212,16.274,5.085,16.262,5.03,16.329Zm-.483-.622c-.068.042-.068.152,0,.25s.182.14.237.1a.193.193,0,0,0,0-.263C4.725,15.694,4.615,15.652,4.547,15.707Z" transform="translate(0 -0.563)"/>
</svg>
