<svg xmlns="http://www.w3.org/2000/svg" width="23" height="21.782" viewBox="0 0 23 21.782">
  <path id="Unicorn-595b40b65ba036ed117d4d03" d="M22.887,1.375,17.027,5.3c.588.463,1.226.98,1.465,1.216a1.752,1.752,0,0,1,.221.276Zm-7.021.553a3.657,3.657,0,0,0-2.128,1.354,19.024,19.024,0,0,1-6.8.415,2.132,2.132,0,0,0,2.1,1.576c-2.777-.106-3.221.707-4.893.193A2.791,2.791,0,0,0,6.634,7.014c-2.962,0-2.989.592-4.312.525.794,1.257,1.966.913,2.626,1.05C2.164,8.886,2.141,10,1.189,9.7c.494.869,2.239,1.078,2.239,1.078-2.092.239-2.6.992-3.234,1.023.617.686,1.44.559,1.52.8A5.57,5.57,0,0,1,0,13.427s5.962,9.73,9.785,9.73c2.342-3.3-2.34-5.454,2.267-9.149,1.481,3.478,5.418,2.4,5.418,2.4a3.475,3.475,0,0,0,2.211,2.073,3.728,3.728,0,0,0,2.792-.276s.466-2.109.442-2.294A1.9,1.9,0,0,0,22,13.676a15.059,15.059,0,0,1-3.593-4.782,3.812,3.812,0,0,0-.525-1.741c-.418-.412-2.46-1.99-2.46-1.99Z" transform="translate(0 -1.375)"/>
</svg>
